<svg xmlns="http://www.w3.org/2000/svg" xmlns:xlink="http://www.w3.org/1999/xlink" width="500" zoomAndPan="magnify" viewBox="0 0 375 374.999991" height="500" preserveAspectRatio="xMidYMid meet" version="1.0"><defs><g/><clipPath id="63652f06ea"><rect x="0" width="371" y="0" height="150"/></clipPath></defs><rect x="-37.5" width="450" fill="#ffffff" y="-37.499999" height="449.999989" fill-opacity="1"/><rect x="-37.5" width="450" fill="#fef5ec" y="-37.499999" height="449.999989" fill-opacity="1"/><g transform="matrix(1, 0, 0, 1, 2, 118)"><g clip-path="url(#63652f06ea)"><g fill="#c8401a" fill-opacity="1"><g transform="translate(1.52774, 106.698028)"><g><path d="M 2.125 -49.09375 C 2.125 -55.425781 3.445312 -61.523438 6.09375 -67.390625 C 8.65625 -73.253906 12.226562 -78.597656 16.8125 -83.421875 C 21.40625 -88.253906 26.75 -92.085938 32.84375 -94.921875 C 38.945312 -97.765625 45.59375 -99.1875 52.78125 -99.1875 C 54.675781 -99.1875 56.945312 -98.898438 59.59375 -98.328125 C 62.238281 -97.765625 65.078125 -97.335938 68.109375 -97.046875 C 68.867188 -96.953125 69.578125 -96.878906 70.234375 -96.828125 C 70.898438 -96.785156 71.609375 -96.765625 72.359375 -96.765625 C 73.492188 -96.765625 75.007812 -96.859375 76.90625 -97.046875 C 78.800781 -97.242188 81.070312 -97.957031 83.71875 -99.1875 C 82.195312 -92.09375 81.203125 -85.609375 80.734375 -79.734375 C 80.265625 -73.867188 80.03125 -68.242188 80.03125 -62.859375 L 80.03125 -57.46875 C 79.84375 -61.34375 79.035156 -65.335938 77.609375 -69.453125 C 76.191406 -73.566406 74.226562 -77.421875 71.71875 -81.015625 C 69.21875 -84.609375 66.285156 -87.515625 62.921875 -89.734375 C 59.566406 -91.960938 55.90625 -93.078125 51.9375 -93.078125 C 50.507812 -93.078125 49.085938 -92.9375 47.671875 -92.65625 C 45.117188 -92.082031 43.015625 -90.492188 41.359375 -87.890625 C 39.703125 -85.296875 38.425781 -82.175781 37.53125 -78.53125 C 36.632812 -74.894531 35.972656 -71.132812 35.546875 -67.25 C 35.117188 -63.375 34.859375 -59.78125 34.765625 -56.46875 C 34.671875 -53.15625 34.625 -50.648438 34.625 -48.953125 C 34.625 -46.867188 34.832031 -44.050781 35.25 -40.5 C 35.675781 -36.957031 36.363281 -33.175781 37.3125 -29.15625 C 38.257812 -25.132812 39.488281 -21.300781 41 -17.65625 C 42.519531 -14.019531 44.316406 -11.039062 46.390625 -8.71875 C 48.472656 -6.40625 50.9375 -5.25 53.78125 -5.25 C 56.988281 -5.25 59.988281 -6.5 62.78125 -9 C 65.570312 -11.507812 66.96875 -14.988281 66.96875 -19.4375 L 66.96875 -20.578125 C 66.96875 -21.046875 66.921875 -21.421875 66.828125 -21.703125 C 70.234375 -22.460938 73.164062 -23.410156 75.625 -24.546875 C 78.082031 -25.679688 80.257812 -26.957031 82.15625 -28.375 C 82.0625 -27.8125 81.894531 -26.582031 81.65625 -24.6875 C 81.414062 -22.789062 80.941406 -20.632812 80.234375 -18.21875 C 79.523438 -15.8125 78.414062 -13.472656 76.90625 -11.203125 C 74.164062 -6.859375 70.5 -3.738281 65.90625 -1.84375 C 61.320312 0.0507812 56.332031 1 50.9375 1 C 44.03125 1 37.597656 -0.273438 31.640625 -2.828125 C 25.679688 -5.390625 20.5 -8.960938 16.09375 -13.546875 C 11.695312 -18.140625 8.269531 -23.460938 5.8125 -29.515625 C 3.351562 -35.566406 2.125 -42.09375 2.125 -49.09375 Z M 2.125 -49.09375 "/></g></g></g><g fill="#c8401a" fill-opacity="1"><g transform="translate(79.415622, 106.698028)"><g><path d="M 4.25 -71.9375 C 8.601562 -70.039062 13.6875 -68.523438 19.5 -67.390625 C 25.320312 -66.265625 31.40625 -65.554688 37.75 -65.265625 C 36.800781 -61.484375 36.085938 -57.628906 35.609375 -53.703125 C 35.140625 -49.773438 34.832031 -46.296875 34.6875 -43.265625 C 34.550781 -40.242188 34.484375 -38.023438 34.484375 -36.609375 C 34.484375 -34.429688 34.550781 -31.921875 34.6875 -29.078125 C 34.832031 -26.242188 35.140625 -23.410156 35.609375 -20.578125 C 35.898438 -19.535156 36.1875 -18.207031 36.46875 -16.59375 C 36.75 -14.988281 37.21875 -13.546875 37.875 -12.265625 C 38.539062 -10.992188 39.628906 -10.359375 41.140625 -10.359375 C 44.171875 -10.359375 46.347656 -11.726562 47.671875 -14.46875 C 48.992188 -17.21875 49.847656 -20.148438 50.234375 -23.265625 C 50.421875 -25.535156 50.582031 -27.804688 50.71875 -30.078125 C 50.863281 -32.347656 50.9375 -34.664062 50.9375 -37.03125 C 50.9375 -39.675781 50.796875 -43.457031 50.515625 -48.375 C 50.234375 -53.300781 49.332031 -58.882812 47.8125 -65.125 C 54.15625 -65.3125 60.210938 -65.925781 65.984375 -66.96875 C 71.753906 -68.007812 76.765625 -69.570312 81.015625 -71.65625 C 79.410156 -66.832031 78.203125 -61.488281 77.390625 -55.625 C 76.585938 -49.757812 76.1875 -43.847656 76.1875 -37.890625 L 76.1875 -31.5 C 76.382812 -27.90625 76.953125 -22.988281 77.890625 -16.75 C 79.023438 -10.5 80.726562 -4.960938 83 -0.140625 L 80.03125 -1.421875 C 78.132812 -2.273438 75.484375 -3.125 72.078125 -3.96875 C 68.671875 -4.820312 64.890625 -5.25 60.734375 -5.25 C 57.515625 -5.25 54.15625 -4.914062 50.65625 -4.25 C 47.15625 -3.59375 43.890625 -2.601562 40.859375 -1.28125 C 37.929688 -0.238281 35.238281 0.28125 32.78125 0.28125 C 27.957031 0.28125 24.003906 -0.875 20.921875 -3.1875 C 17.847656 -5.507812 15.457031 -8.515625 13.75 -12.203125 C 12.050781 -15.890625 10.867188 -19.859375 10.203125 -24.109375 C 9.546875 -28.367188 9.21875 -32.394531 9.21875 -36.1875 L 9.21875 -38.171875 C 9.21875 -44.128906 8.816406 -50.039062 8.015625 -55.90625 C 7.210938 -61.769531 5.957031 -67.113281 4.25 -71.9375 Z M 4.25 -71.9375 "/></g></g></g><g fill="#c8401a" fill-opacity="1"><g transform="translate(156.59412, 106.698028)"><g><path d="M 4.25 -0.28125 C 5.289062 -2.644531 6.257812 -5.195312 7.15625 -7.9375 C 8.0625 -10.6875 8.84375 -13.671875 9.5 -16.890625 C 10.726562 -23.128906 11.390625 -28.09375 11.484375 -31.78125 C 11.585938 -35.46875 11.640625 -37.785156 11.640625 -38.734375 C 11.640625 -44.410156 11.210938 -50.132812 10.359375 -55.90625 C 9.503906 -61.675781 8.082031 -66.972656 6.09375 -71.796875 C 10.257812 -71.796875 13.851562 -71.910156 16.875 -72.140625 C 19.90625 -72.378906 22.910156 -72.832031 25.890625 -73.5 C 28.867188 -74.164062 32.300781 -75.113281 36.1875 -76.34375 L 36.1875 -57.609375 C 37.882812 -60.734375 39.960938 -63.757812 42.421875 -66.6875 C 44.878906 -69.625 47.523438 -72.0625 50.359375 -74 C 53.203125 -75.9375 56.046875 -76.90625 58.890625 -76.90625 C 61.160156 -76.90625 63.144531 -76.195312 64.84375 -74.78125 C 66.351562 -73.550781 67.273438 -72.222656 67.609375 -70.796875 C 67.941406 -69.378906 68.109375 -68.148438 68.109375 -67.109375 C 68.109375 -66.359375 68.015625 -65.34375 67.828125 -64.0625 C 67.640625 -62.78125 67.070312 -61.195312 66.125 -59.3125 C 64.894531 -56.570312 63.210938 -54.226562 61.078125 -52.28125 C 58.953125 -50.34375 56.941406 -49.28125 55.046875 -49.09375 C 53.722656 -51.832031 52 -53.863281 49.875 -55.1875 C 47.75 -56.519531 45.691406 -57.1875 43.703125 -57.1875 C 42.191406 -57.1875 40.867188 -56.828125 39.734375 -56.109375 C 38.597656 -55.398438 37.789062 -54.242188 37.3125 -52.640625 C 36.9375 -50.941406 36.601562 -48.578125 36.3125 -45.546875 C 36.03125 -42.515625 35.890625 -39.394531 35.890625 -36.1875 L 35.890625 -30.9375 C 35.890625 -28.28125 36.222656 -24.5625 36.890625 -19.78125 C 37.554688 -15.007812 38.644531 -10.351562 40.15625 -5.8125 C 33.0625 -5.625 26.390625 -5.054688 20.140625 -4.109375 C 13.898438 -3.171875 8.601562 -1.894531 4.25 -0.28125 Z M 4.25 -0.28125 "/></g></g></g><g fill="#c8401a" fill-opacity="1"><g transform="translate(212.774678, 106.698028)"><g><path d="M 4.25 -0.421875 L 4.40625 -1 C 6.863281 -8.1875 8.660156 -16.15625 9.796875 -24.90625 C 10.929688 -33.65625 11.5 -42.566406 11.5 -51.640625 C 11.5 -60.722656 10.976562 -69.398438 9.9375 -77.671875 C 8.894531 -85.953125 7.378906 -93.21875 5.390625 -99.46875 C 6.335938 -99.375 7.257812 -99.300781 8.15625 -99.25 C 9.050781 -99.207031 10.019531 -99.1875 11.0625 -99.1875 C 12.101562 -99.1875 13.734375 -99.234375 15.953125 -99.328125 C 18.179688 -99.421875 20.90625 -99.703125 24.125 -100.171875 C 27.4375 -100.742188 30.484375 -101.382812 33.265625 -102.09375 C 36.054688 -102.800781 38.304688 -103.582031 40.015625 -104.4375 C 39.640625 -101.5 39.304688 -97.925781 39.015625 -93.71875 C 38.734375 -89.507812 38.5 -85.109375 38.3125 -80.515625 C 38.125 -75.929688 37.9375 -71.65625 37.75 -67.6875 C 43.414062 -70.425781 49.039062 -71.796875 54.625 -71.796875 C 60.675781 -71.796875 66.234375 -70.328125 71.296875 -67.390625 C 76.359375 -64.460938 80.425781 -60.394531 83.5 -55.1875 C 86.570312 -49.988281 88.109375 -43.984375 88.109375 -37.171875 C 88.109375 -33.859375 87.679688 -30.378906 86.828125 -26.734375 C 85.984375 -23.097656 84.753906 -19.597656 83.140625 -16.234375 C 81.535156 -12.878906 79.617188 -9.972656 77.390625 -7.515625 C 75.171875 -5.054688 72.644531 -3.351562 69.8125 -2.40625 C 67.351562 -1.5625 65.082031 -0.972656 63 -0.640625 C 60.914062 -0.304688 58.929688 -0.140625 57.046875 -0.140625 C 52.972656 -0.140625 49.28125 -0.679688 45.96875 -1.765625 C 42.65625 -2.859375 39.015625 -3.5 35.046875 -3.6875 C 34.765625 -3.78125 34.476562 -3.828125 34.1875 -3.828125 C 33.90625 -3.828125 33.625 -3.828125 33.34375 -3.828125 L 31.359375 -3.828125 C 29.753906 -3.828125 27.53125 -3.6875 24.6875 -3.40625 C 21.851562 -3.125 18.945312 -2.789062 15.96875 -2.40625 C 12.988281 -2.03125 10.382812 -1.648438 8.15625 -1.265625 C 5.9375 -0.890625 4.632812 -0.609375 4.25 -0.421875 Z M 44.125 -66.265625 C 42.238281 -65.035156 40.113281 -63.144531 37.75 -60.59375 C 37.84375 -50.84375 38.3125 -41.191406 39.15625 -31.640625 C 40.007812 -22.085938 41.238281 -13.335938 42.84375 -5.390625 C 44.175781 -5.203125 45.550781 -4.960938 46.96875 -4.671875 C 48.382812 -4.390625 49.894531 -4.15625 51.5 -3.96875 L 52.078125 -3.96875 C 52.171875 -3.96875 52.265625 -3.96875 52.359375 -3.96875 C 52.453125 -3.96875 52.546875 -3.96875 52.640625 -3.96875 C 54.242188 -3.96875 55.660156 -5.148438 56.890625 -7.515625 C 58.128906 -9.878906 59.078125 -12.957031 59.734375 -16.75 C 60.304688 -20.34375 60.6875 -24.050781 60.875 -27.875 C 61.0625 -31.707031 61.15625 -34.757812 61.15625 -37.03125 C 61.15625 -38.351562 61.0625 -40.242188 60.875 -42.703125 C 60.6875 -45.160156 60.351562 -47.832031 59.875 -50.71875 C 59.40625 -53.601562 58.71875 -56.347656 57.8125 -58.953125 C 56.914062 -61.554688 55.757812 -63.6875 54.34375 -65.34375 C 52.925781 -67 51.175781 -67.828125 49.09375 -67.828125 C 47.675781 -67.828125 46.019531 -67.304688 44.125 -66.265625 Z M 44.125 -66.265625 "/></g></g></g><g fill="#c8401a" fill-opacity="1"><g transform="translate(287.398763, 106.698028)"><g><path d="M 1.421875 22.5625 C 1.421875 20.851562 1.609375 19.484375 1.984375 18.453125 C 2.742188 15.421875 4.328125 12.863281 6.734375 10.78125 C 9.148438 8.695312 12.34375 7.515625 16.3125 7.234375 L 17.59375 7.234375 C 21.28125 7.234375 24.445312 8.035156 27.09375 9.640625 C 29.75 11.253906 31.40625 13.71875 32.0625 17.03125 C 32.15625 17.3125 32.203125 17.878906 32.203125 18.734375 C 32.203125 20.148438 31.800781 21.734375 31 23.484375 C 30.195312 25.234375 29.039062 26.488281 27.53125 27.25 C 27.53125 25.445312 26.394531 24.546875 24.125 24.546875 L 23.40625 24.546875 C 22.46875 24.828125 21.804688 25.488281 21.421875 26.53125 C 21.046875 27.570312 20.859375 28.519531 20.859375 29.375 C 20.859375 29.75 21.019531 30.503906 21.34375 31.640625 C 21.675781 32.773438 22.429688 33.835938 23.609375 34.828125 C 24.796875 35.828125 26.671875 36.328125 29.234375 36.328125 L 29.796875 36.328125 C 32.441406 36.035156 34.660156 34.800781 36.453125 32.625 C 38.253906 30.457031 39.601562 27.929688 40.5 25.046875 C 41.40625 22.160156 41.859375 19.628906 41.859375 17.453125 L 41.859375 16.453125 C 41.765625 13.046875 40.675781 10.28125 38.59375 8.15625 C 36.507812 6.03125 33.835938 4.328125 30.578125 3.046875 C 27.316406 1.773438 23.742188 0.710938 19.859375 -0.140625 C 21.179688 -5.347656 21.84375 -11.191406 21.84375 -17.671875 C 21.84375 -24.148438 21.273438 -30.769531 20.140625 -37.53125 C 19.015625 -44.289062 17.363281 -50.675781 15.1875 -56.6875 C 13.007812 -62.695312 10.359375 -67.78125 7.234375 -71.9375 C 12.148438 -69.757812 17.894531 -68.101562 24.46875 -66.96875 C 31.050781 -65.832031 37.890625 -65.265625 44.984375 -65.265625 C 44.890625 -64.222656 44.816406 -63.132812 44.765625 -62 C 44.722656 -60.863281 44.703125 -59.726562 44.703125 -58.59375 C 44.703125 -58.3125 44.675781 -58.03125 44.625 -57.75 C 44.570312 -57.46875 44.546875 -57.132812 44.546875 -56.75 C 44.546875 -55.425781 44.6875 -53.441406 44.96875 -50.796875 C 45.257812 -48.148438 45.785156 -44.835938 46.546875 -40.859375 C 47.296875 -36.796875 48.285156 -32.632812 49.515625 -28.375 C 50.742188 -24.125 52.210938 -20.296875 53.921875 -16.890625 C 55.898438 -20.671875 57.644531 -24.734375 59.15625 -29.078125 C 60.675781 -33.429688 61.910156 -37.691406 62.859375 -41.859375 C 63.804688 -46.015625 64.46875 -49.582031 64.84375 -52.5625 C 65.21875 -55.550781 65.40625 -57.941406 65.40625 -59.734375 C 65.40625 -60.210938 65.378906 -60.613281 65.328125 -60.9375 C 65.285156 -61.269531 65.265625 -61.625 65.265625 -62 L 65.265625 -64.5625 C 65.265625 -65.03125 65.265625 -65.453125 65.265625 -65.828125 C 65.265625 -66.210938 65.21875 -66.59375 65.125 -66.96875 C 68.15625 -67.539062 71.015625 -68.25 73.703125 -69.09375 C 76.398438 -69.945312 78.929688 -70.894531 81.296875 -71.9375 C 77.515625 -67.207031 74.75 -62.3125 73 -57.25 C 71.25 -52.1875 69.332031 -46.722656 67.25 -40.859375 L 49.515625 11.0625 C 46.585938 20.71875 43.894531 27.53125 41.4375 31.5 C 39.632812 34.90625 37.078125 37.457031 33.765625 39.15625 C 30.453125 40.863281 27 41.71875 23.40625 41.71875 C 17.738281 41.71875 12.679688 39.921875 8.234375 36.328125 C 5.203125 33.773438 3.304688 31.265625 2.546875 28.796875 C 1.796875 26.335938 1.421875 24.257812 1.421875 22.5625 Z M 1.421875 22.5625 "/></g></g></g></g></g></svg>